<svg width="19" height="19" viewBox="0 0 19 19" fill="none" xmlns="http://www.w3.org/2000/svg">
<path d="M15.833 6.8796V3.16668H12.1201L9.49965 0.546265L6.87923 3.16668H3.16632V6.8796L0.545898 9.50002L3.16632 12.1204V15.8333H6.87923L9.49965 18.4538L12.1201 15.8333H15.833V12.1204L18.4534 9.50002L15.833 6.8796ZM14.2496 11.4633V14.25H11.463L9.49965 16.2133L7.53632 14.25H4.74965V11.4633L2.78632 9.50002L4.74965 7.53668V4.75001H7.53632L9.49965 2.78668L11.463 4.75001H14.2496V7.53668L16.213 9.50002L14.2496 11.4633ZM9.49965 5.14585C7.1009 5.14585 5.14548 7.10127 5.14548 9.50002C5.14548 11.8988 7.1009 13.8542 9.49965 13.8542C11.8984 13.8542 13.8538 11.8988 13.8538 9.50002C13.8538 7.10127 11.8984 5.14585 9.49965 5.14585ZM9.49965 12.2708C7.97173 12.2708 6.72882 11.0279 6.72882 9.50002C6.72882 7.9721 7.97173 6.72918 9.49965 6.72918C11.0276 6.72918 12.2705 7.9721 12.2705 9.50002C12.2705 11.0279 11.0276 12.2708 9.49965 12.2708Z" fill="white"/>
</svg>
