<svg width="15" height="18" viewBox="0 0 15 18" fill="none" xmlns="http://www.w3.org/2000/svg">
<path d="M5.92458 15.6329C5.92458 16.5038 6.62917 17.2083 7.5 17.2083C8.37083 17.2083 9.07542 16.5038 9.07542 15.6329H5.92458ZM7.5 3.75C9.685 3.75 11.4583 5.52333 11.4583 7.70833V13.25H3.54167V7.70833C3.54167 5.52333 5.315 3.75 7.5 3.75ZM7.5 0.1875C6.84292 0.1875 6.3125 0.717917 6.3125 1.375V2.30125C3.82667 2.83958 1.95833 5.05625 1.95833 7.70833V12.4583L0.375 14.0417V14.8333H14.625V14.0417L13.0417 12.4583V7.70833C13.0417 5.05625 11.1733 2.83958 8.6875 2.30125V1.375C8.6875 0.717917 8.15708 0.1875 7.5 0.1875ZM6.70833 5.33333H8.29167V8.5H6.70833V5.33333ZM6.70833 10.0833H8.29167V11.6667H6.70833V10.0833Z" fill="white"/>
</svg>
