<svg width="22" height="22" viewBox="0 0 22 22" fill="none" xmlns="http://www.w3.org/2000/svg">
<g clip-path="url(#clip0_2514_922)">
<path d="M11 13.75C12.5188 13.75 13.75 12.5188 13.75 11C13.75 9.48122 12.5188 8.25 11 8.25C9.48122 8.25 8.25 9.48122 8.25 11C8.25 12.5188 9.48122 13.75 11 13.75Z" fill="white"/>
<path d="M18.333 3.66665H15.4272L14.2905 2.42915C13.9513 2.05331 13.4563 1.83331 12.943 1.83331H9.05634C8.54301 1.83331 8.04801 2.05331 7.69967 2.42915L6.57217 3.66665H3.66634C2.65801 3.66665 1.83301 4.49165 1.83301 5.49998V16.5C1.83301 17.5083 2.65801 18.3333 3.66634 18.3333H18.333C19.3413 18.3333 20.1663 17.5083 20.1663 16.5V5.49998C20.1663 4.49165 19.3413 3.66665 18.333 3.66665ZM10.9997 15.5833C8.46967 15.5833 6.41634 13.53 6.41634 11C6.41634 8.46998 8.46967 6.41665 10.9997 6.41665C13.5297 6.41665 15.583 8.46998 15.583 11C15.583 13.53 13.5297 15.5833 10.9997 15.5833Z" fill="white"/>
</g>
<defs>
<clipPath id="clip0_2514_922">
<rect width="22" height="22" fill="white"/>
</clipPath>
</defs>
</svg>
