<svg width="23" height="23" viewBox="0 0 23 23" fill="none" xmlns="http://www.w3.org/2000/svg">
<path d="M19.8333 14.9479L21.8125 12.9688C22.625 12.1563 22.625 10.8333 21.8125 10.0208L19.8333 8.05208V5.25C19.8333 4.10417 18.8958 3.16667 17.75 3.16667H14.9479L12.9688 1.1875C12.1563 0.375 10.8333 0.375 10.0208 1.1875L8.05208 3.16667H5.25C4.10417 3.16667 3.16667 4.10417 3.16667 5.25V8.05208L1.1875 10.0313C0.375 10.8438 0.375 12.1667 1.1875 12.9792L3.16667 14.9583V17.75C3.16667 18.8958 4.10417 19.8333 5.25 19.8333H8.05208L10.0313 21.8125C10.8438 22.625 12.1667 22.625 12.9792 21.8125L14.9583 19.8333H17.75C18.8958 19.8333 19.8333 18.8958 19.8333 17.75V14.9479ZM11.5 17.75C8.05208 17.75 5.25 14.9479 5.25 11.5C5.25 8.05208 8.05208 5.25 11.5 5.25C14.9479 5.25 17.75 8.05208 17.75 11.5C17.75 14.9479 14.9479 17.75 11.5 17.75Z" fill="#454B68"/>
</svg>
