<svg width="21" height="21" viewBox="0 0 21 21" fill="none" xmlns="http://www.w3.org/2000/svg">
<path d="M14.5314 13.8854L11.021 11.8021V7.08335C11.021 6.66668 10.6876 6.33335 10.271 6.33335H10.2085C9.7918 6.33335 9.45847 6.66668 9.45847 7.08335V12C9.45847 12.3646 9.64597 12.7083 9.96889 12.8958L13.771 15.1771C14.1251 15.3854 14.5835 15.2813 14.7918 14.9271C15.0106 14.5625 14.896 14.0938 14.5314 13.8854V13.8854ZM20.0626 3.21876L16.8543 0.552097C16.4168 0.187514 15.7606 0.239597 15.3856 0.687514C15.021 1.12501 15.0835 1.78126 15.521 2.15626L18.7189 4.82293C19.1564 5.18751 19.8126 5.13543 20.1876 4.68751C20.5626 4.25001 20.5001 3.59376 20.0626 3.21876V3.21876ZM2.27097 4.82293L5.46889 2.15626C5.9168 1.78126 5.9793 1.12501 5.6043 0.687514C5.23972 0.239597 4.58347 0.187514 4.14597 0.552097L0.937638 3.21876C0.500138 3.59376 0.437638 4.25001 0.812638 4.68751C1.17722 5.13543 1.83347 5.18751 2.27097 4.82293ZM10.5001 2.16668C5.32305 2.16668 1.12514 6.3646 1.12514 11.5417C1.12514 16.7188 5.32305 20.9167 10.5001 20.9167C15.6772 20.9167 19.8751 16.7188 19.8751 11.5417C19.8751 6.3646 15.6772 2.16668 10.5001 2.16668ZM10.5001 18.8333C6.4793 18.8333 3.20847 15.5625 3.20847 11.5417C3.20847 7.52085 6.4793 4.25001 10.5001 4.25001C14.521 4.25001 17.7918 7.52085 17.7918 11.5417C17.7918 15.5625 14.521 18.8333 10.5001 18.8333Z" fill="#454B68"/>
</svg>
