<svg width="30" height="30" viewBox="0 0 30 30" fill="none" xmlns="http://www.w3.org/2000/svg">
<g clip-path="url(#clip0_2322_476)">
<path d="M5 14.375V19.375C5 20.4125 5.8375 21.25 6.875 21.25C7.9125 21.25 8.75 20.4125 8.75 19.375V14.375C8.75 13.3375 7.9125 12.5 6.875 12.5C5.8375 12.5 5 13.3375 5 14.375ZM12.5 14.375V19.375C12.5 20.4125 13.3375 21.25 14.375 21.25C15.4125 21.25 16.25 20.4125 16.25 19.375V14.375C16.25 13.3375 15.4125 12.5 14.375 12.5C13.3375 12.5 12.5 13.3375 12.5 14.375ZM4.375 27.5H24.375C25.4125 27.5 26.25 26.6625 26.25 25.625C26.25 24.5875 25.4125 23.75 24.375 23.75H4.375C3.3375 23.75 2.5 24.5875 2.5 25.625C2.5 26.6625 3.3375 27.5 4.375 27.5ZM20 14.375V19.375C20 20.4125 20.8375 21.25 21.875 21.25C22.9125 21.25 23.75 20.4125 23.75 19.375V14.375C23.75 13.3375 22.9125 12.5 21.875 12.5C20.8375 12.5 20 13.3375 20 14.375ZM13.2125 1.86252L3.3375 7.06252C2.825 7.32502 2.5 7.86252 2.5 8.43752C2.5 9.30002 3.2 10 4.0625 10H24.7C25.55 10 26.25 9.30002 26.25 8.43752C26.25 7.86252 25.925 7.32502 25.4125 7.06252L15.5375 1.86252C14.8125 1.47502 13.9375 1.47502 13.2125 1.86252Z" fill="#B72424"/>
</g>
<defs>
<clipPath id="clip0_2322_476">
<rect width="30" height="30" fill="white"/>
</clipPath>
</defs>
</svg>
