<svg width="25" height="25" viewBox="0 0 25 25" fill="none" xmlns="http://www.w3.org/2000/svg">
<path d="M17.1764 16.4271L13.1043 14.0104V8.53666C13.1043 8.05333 12.7177 7.66666 12.2343 7.66666H12.1618C11.6785 7.66666 11.2918 8.05333 11.2918 8.53666V14.24C11.2918 14.6629 11.5093 15.0617 11.8839 15.2792L16.2943 17.9254C16.7052 18.1671 17.2368 18.0462 17.4785 17.6354C17.7323 17.2125 17.5993 16.6687 17.1764 16.4271V16.4271ZM23.5927 4.05375L19.871 0.960413C19.3635 0.537497 18.6023 0.597913 18.1673 1.1175C17.7443 1.625 17.8168 2.38625 18.3243 2.82125L22.0339 5.91458C22.5414 6.3375 23.3027 6.27708 23.7377 5.7575C24.1727 5.25 24.1002 4.48875 23.5927 4.05375V4.05375ZM2.95435 5.91458L6.66393 2.82125C7.18351 2.38625 7.25601 1.625 6.82101 1.1175C6.3981 0.597913 5.63685 0.537497 5.12935 0.960413L1.40768 4.05375C0.90018 4.48875 0.82768 5.25 1.26268 5.7575C1.6856 6.27708 2.44685 6.3375 2.95435 5.91458ZM12.5002 2.83333C6.49476 2.83333 1.62518 7.70291 1.62518 13.7083C1.62518 19.7137 6.49476 24.5833 12.5002 24.5833C18.5056 24.5833 23.3752 19.7137 23.3752 13.7083C23.3752 7.70291 18.5056 2.83333 12.5002 2.83333ZM12.5002 22.1667C7.83601 22.1667 4.04185 18.3725 4.04185 13.7083C4.04185 9.04416 7.83601 5.25 12.5002 5.25C17.1643 5.25 20.9585 9.04416 20.9585 13.7083C20.9585 18.3725 17.1643 22.1667 12.5002 22.1667Z" fill="#454B68"/>
</svg>
