<svg width="30" height="30" viewBox="0 0 30 30" fill="none" xmlns="http://www.w3.org/2000/svg">
<path d="M27.5 10C27.5 9.3125 26.9375 8.75 26.25 8.75H25V6.25C25 4.875 23.875 3.75 22.5 3.75H5C3.625 3.75 2.5 4.875 2.5 6.25V23.75C2.5 25.125 3.625 26.25 5 26.25H22.5C23.875 26.25 25 25.125 25 23.75V21.25H26.25C26.9375 21.25 27.5 20.6875 27.5 20C27.5 19.3125 26.9375 18.75 26.25 18.75H25V16.25H26.25C26.9375 16.25 27.5 15.6875 27.5 15C27.5 14.3125 26.9375 13.75 26.25 13.75H25V11.25H26.25C26.9375 11.25 27.5 10.6875 27.5 10ZM21.25 23.75H6.25C5.5625 23.75 5 23.1875 5 22.5V7.5C5 6.8125 5.5625 6.25 6.25 6.25H21.25C21.9375 6.25 22.5 6.8125 22.5 7.5V22.5C22.5 23.1875 21.9375 23.75 21.25 23.75ZM8.125 16.25H13.125C13.475 16.25 13.75 16.525 13.75 16.875V20.625C13.75 20.975 13.475 21.25 13.125 21.25H8.125C7.775 21.25 7.5 20.975 7.5 20.625V16.875C7.5 16.525 7.775 16.25 8.125 16.25ZM15.625 8.75H19.375C19.725 8.75 20 9.025 20 9.375V11.875C20 12.225 19.725 12.5 19.375 12.5H15.625C15.275 12.5 15 12.225 15 11.875V9.375C15 9.025 15.275 8.75 15.625 8.75ZM8.125 8.75H13.125C13.475 8.75 13.75 9.025 13.75 9.375V14.375C13.75 14.725 13.475 15 13.125 15H8.125C7.775 15 7.5 14.725 7.5 14.375V9.375C7.5 9.025 7.775 8.75 8.125 8.75ZM15.625 13.75H19.375C19.725 13.75 20 14.025 20 14.375V20.625C20 20.975 19.725 21.25 19.375 21.25H15.625C15.275 21.25 15 20.975 15 20.625V14.375C15 14.025 15.275 13.75 15.625 13.75Z" fill="#454B68"/>
</svg>
