<svg width="25" height="27" viewBox="0 0 25 27" fill="none" xmlns="http://www.w3.org/2000/svg">
<path d="M3 13.375V18.375C3 19.4125 3.8375 20.25 4.875 20.25C5.9125 20.25 6.75 19.4125 6.75 18.375V13.375C6.75 12.3375 5.9125 11.5 4.875 11.5C3.8375 11.5 3 12.3375 3 13.375ZM10.5 13.375V18.375C10.5 19.4125 11.3375 20.25 12.375 20.25C13.4125 20.25 14.25 19.4125 14.25 18.375V13.375C14.25 12.3375 13.4125 11.5 12.375 11.5C11.3375 11.5 10.5 12.3375 10.5 13.375ZM2.375 26.5H22.375C23.4125 26.5 24.25 25.6625 24.25 24.625C24.25 23.5875 23.4125 22.75 22.375 22.75H2.375C1.3375 22.75 0.5 23.5875 0.5 24.625C0.5 25.6625 1.3375 26.5 2.375 26.5ZM18 13.375V18.375C18 19.4125 18.8375 20.25 19.875 20.25C20.9125 20.25 21.75 19.4125 21.75 18.375V13.375C21.75 12.3375 20.9125 11.5 19.875 11.5C18.8375 11.5 18 12.3375 18 13.375ZM11.2125 0.862524L1.3375 6.06252C0.825 6.32502 0.5 6.86252 0.5 7.43752C0.5 8.30002 1.2 9.00002 2.0625 9.00002H22.7C23.55 9.00002 24.25 8.30002 24.25 7.43752C24.25 6.86252 23.925 6.32502 23.4125 6.06252L13.5375 0.862524C12.8125 0.475024 11.9375 0.475024 11.2125 0.862524V0.862524Z" fill="#454B68"/>
</svg>
