<svg width="21" height="21" viewBox="0 0 21 21" fill="none" xmlns="http://www.w3.org/2000/svg">
<path d="M19.7436 6.92333L13.8952 6.41583L11.6115 1.03875C11.2006 0.06 9.79898 0.06 9.38815 1.03875L7.1044 6.42792L1.26815 6.92333C0.204813 7.00792 -0.230187 8.33708 0.579396 9.03792L5.01398 12.8804L3.68481 18.5837C3.44315 19.6229 4.5669 20.4446 5.48523 19.8887L10.4998 16.8679L15.5144 19.9008C16.4327 20.4567 17.5565 19.635 17.3148 18.5958L15.9856 12.8804L20.4202 9.03792C21.2298 8.33708 20.8069 7.00792 19.7436 6.92333V6.92333ZM10.4998 14.6083L5.95648 17.3512L7.16481 12.1796L3.15315 8.69958L8.44565 8.24042L10.4998 3.37083L12.5661 8.2525L17.8586 8.71167L13.8469 12.1917L15.0552 17.3633L10.4998 14.6083Z" fill="#454B68"/>
</svg>
