<svg width="29" height="29" viewBox="0 0 29 29" fill="none" xmlns="http://www.w3.org/2000/svg">
<g clip-path="url(#clip0_2322_522)">
<path d="M18.7292 16.9167H17.7746L17.4363 16.5904C18.8863 14.8987 19.6354 12.5908 19.2246 10.1379C18.6567 6.77874 15.8534 4.09624 12.47 3.68541C7.35877 3.05708 3.05711 7.35874 3.68544 12.47C4.09627 15.8533 6.77877 18.6567 10.1379 19.2246C12.5909 19.6354 14.8988 18.8862 16.5904 17.4362L16.9167 17.7746V18.7292L22.0521 23.8646C22.5475 24.36 23.3571 24.36 23.8525 23.8646C24.3479 23.3692 24.3479 22.5596 23.8525 22.0642L18.7292 16.9167ZM11.4792 16.9167C8.47044 16.9167 6.04169 14.4879 6.04169 11.4792C6.04169 8.47041 8.47044 6.04166 11.4792 6.04166C14.4879 6.04166 16.9167 8.47041 16.9167 11.4792C16.9167 14.4879 14.4879 16.9167 11.4792 16.9167Z" fill="#454B68"/>
</g>
<defs>
<clipPath id="clip0_2322_522">
<rect width="29" height="29" fill="white"/>
</clipPath>
</defs>
</svg>
