<svg width="23" height="23" viewBox="0 0 23 23" fill="none" xmlns="http://www.w3.org/2000/svg">
<path d="M0.625 18.75C0.625 19.4146 1.16875 19.9583 1.83333 19.9583H7.875V17.5417H1.83333C1.16875 17.5417 0.625 18.0854 0.625 18.75ZM0.625 4.25C0.625 4.91458 1.16875 5.45833 1.83333 5.45833H12.7083V3.04167H1.83333C1.16875 3.04167 0.625 3.58542 0.625 4.25ZM12.7083 21.1667V19.9583H21.1667C21.8313 19.9583 22.375 19.4146 22.375 18.75C22.375 18.0854 21.8313 17.5417 21.1667 17.5417H12.7083V16.3333C12.7083 15.6688 12.1646 15.125 11.5 15.125C10.8354 15.125 10.2917 15.6688 10.2917 16.3333V21.1667C10.2917 21.8313 10.8354 22.375 11.5 22.375C12.1646 22.375 12.7083 21.8313 12.7083 21.1667ZM5.45833 9.08333V10.2917H1.83333C1.16875 10.2917 0.625 10.8354 0.625 11.5C0.625 12.1646 1.16875 12.7083 1.83333 12.7083H5.45833V13.9167C5.45833 14.5813 6.00208 15.125 6.66667 15.125C7.33125 15.125 7.875 14.5813 7.875 13.9167V9.08333C7.875 8.41875 7.33125 7.875 6.66667 7.875C6.00208 7.875 5.45833 8.41875 5.45833 9.08333ZM22.375 11.5C22.375 10.8354 21.8313 10.2917 21.1667 10.2917H10.2917V12.7083H21.1667C21.8313 12.7083 22.375 12.1646 22.375 11.5ZM16.3333 7.875C16.9979 7.875 17.5417 7.33125 17.5417 6.66667V5.45833H21.1667C21.8313 5.45833 22.375 4.91458 22.375 4.25C22.375 3.58542 21.8313 3.04167 21.1667 3.04167H17.5417V1.83333C17.5417 1.16875 16.9979 0.625 16.3333 0.625C15.6688 0.625 15.125 1.16875 15.125 1.83333V6.66667C15.125 7.33125 15.6688 7.875 16.3333 7.875Z" fill="#454B68"/>
</svg>
