<svg width="18" height="18" viewBox="0 0 18 18" fill="none" xmlns="http://www.w3.org/2000/svg">
<path d="M13.1458 11.5833H12.3228L12.0312 11.3021C13.2812 9.84375 13.927 7.85416 13.5728 5.73958C13.0833 2.84375 10.6666 0.531246 7.74992 0.177079C3.34367 -0.364588 -0.364664 3.34375 0.177003 7.75C0.531169 10.6667 2.84367 13.0833 5.7395 13.5729C7.85409 13.9271 9.84367 13.2812 11.302 12.0312L11.5833 12.3229V13.1458L16.0103 17.5729C16.4374 18 17.1353 18 17.5624 17.5729C17.9895 17.1458 17.9895 16.4479 17.5624 16.0208L13.1458 11.5833ZM6.89575 11.5833C4.302 11.5833 2.20825 9.48958 2.20825 6.89583C2.20825 4.30208 4.302 2.20833 6.89575 2.20833C9.4895 2.20833 11.5833 4.30208 11.5833 6.89583C11.5833 9.48958 9.4895 11.5833 6.89575 11.5833Z" fill="#CDCDCD"/>
</svg>
